<svg id="visual" viewBox="0 0 960 540" width="960" height="540" xmlns="http://www.w3.org/2000/svg" xmlns:xlink="http://www.w3.org/1999/xlink" version="1.1"><path d="M0 104L14.5 108.5C29 113 58 122 87.2 136.3C116.3 150.7 145.7 170.3 174.8 184.7C204 199 233 208 262 203.5C291 199 320 181 349 177.3C378 173.7 407 184.3 436.2 179.8C465.3 175.3 494.7 155.7 523.8 154.8C553 154 582 172 611 162.2C640 152.3 669 114.7 698 101.2C727 87.7 756 98.3 785.2 121.7C814.3 145 843.7 181 872.8 195.3C902 209.7 931 202.3 945.5 198.7L960 195L960 0L945.5 0C931 0 902 0 872.8 0C843.7 0 814.3 0 785.2 0C756 0 727 0 698 0C669 0 640 0 611 0C582 0 553 0 523.8 0C494.7 0 465.3 0 436.2 0C407 0 378 0 349 0C320 0 291 0 262 0C233 0 204 0 174.8 0C145.7 0 116.3 0 87.2 0C58 0 29 0 14.5 0L0 0Z" fill="#6198ff"></path><path d="M0 195L14.5 192.3C29 189.7 58 184.3 87.2 188.8C116.3 193.3 145.7 207.7 174.8 224.8C204 242 233 262 262 261.2C291 260.3 320 238.7 349 235C378 231.3 407 245.7 436.2 244.8C465.3 244 494.7 228 523.8 231.7C553 235.3 582 258.7 611 246C640 233.3 669 184.7 698 169.3C727 154 756 172 785.2 200.8C814.3 229.7 843.7 269.3 872.8 282.8C902 296.3 931 283.7 945.5 277.3L960 271L960 193L945.5 196.7C931 200.3 902 207.7 872.8 193.3C843.7 179 814.3 143 785.2 119.7C756 96.3 727 85.7 698 99.2C669 112.7 640 150.3 611 160.2C582 170 553 152 523.8 152.8C494.7 153.7 465.3 173.3 436.2 177.8C407 182.3 378 171.7 349 175.3C320 179 291 197 262 201.5C233 206 204 197 174.8 182.7C145.7 168.3 116.3 148.7 87.2 134.3C58 120 29 111 14.5 106.5L0 102Z" fill="#3c80ff"></path><path d="M0 395L14.5 399.5C29 404 58 413 87.2 404C116.3 395 145.7 368 174.8 359C204 350 233 359 262 366.2C291 373.3 320 378.7 349 373.3C378 368 407 352 436.2 344.8C465.3 337.7 494.7 339.3 523.8 343.8C553 348.3 582 355.7 611 362C640 368.3 669 373.7 698 371.8C727 370 756 361 785.2 370.8C814.3 380.7 843.7 409.3 872.8 415.7C902 422 931 406 945.5 398L960 390L960 269L945.5 275.3C931 281.7 902 294.3 872.8 280.8C843.7 267.3 814.3 227.7 785.2 198.8C756 170 727 152 698 167.3C669 182.7 640 231.3 611 244C582 256.7 553 233.3 523.8 229.7C494.7 226 465.3 242 436.2 242.8C407 243.7 378 229.3 349 233C320 236.7 291 258.3 262 259.2C233 260 204 240 174.8 222.8C145.7 205.7 116.3 191.3 87.2 186.8C58 182.3 29 187.7 14.5 190.3L0 193Z" fill="#0066ff"></path><path d="M0 438L14.5 442.5C29 447 58 456 87.2 453.3C116.3 450.7 145.7 436.3 174.8 428.3C204 420.3 233 418.7 262 425C291 431.3 320 445.7 349 442C378 438.3 407 416.7 436.2 405.8C465.3 395 494.7 395 523.8 402.2C553 409.3 582 423.7 611 439C640 454.3 669 470.7 698 472.5C727 474.3 756 461.7 785.2 462.5C814.3 463.3 843.7 477.7 872.8 476.8C902 476 931 460 945.5 452L960 444L960 388L945.5 396C931 404 902 420 872.8 413.7C843.7 407.3 814.3 378.7 785.2 368.8C756 359 727 368 698 369.8C669 371.7 640 366.3 611 360C582 353.7 553 346.3 523.8 341.8C494.7 337.3 465.3 335.7 436.2 342.8C407 350 378 366 349 371.3C320 376.7 291 371.3 262 364.2C233 357 204 348 174.8 357C145.7 366 116.3 393 87.2 402C58 411 29 402 14.5 397.5L0 393Z" fill="#0059dd"></path><path d="M0 541L14.5 541C29 541 58 541 87.2 541C116.3 541 145.7 541 174.8 541C204 541 233 541 262 541C291 541 320 541 349 541C378 541 407 541 436.2 541C465.3 541 494.7 541 523.8 541C553 541 582 541 611 541C640 541 669 541 698 541C727 541 756 541 785.2 541C814.3 541 843.7 541 872.8 541C902 541 931 541 945.5 541L960 541L960 442L945.5 450C931 458 902 474 872.8 474.8C843.7 475.7 814.3 461.3 785.2 460.5C756 459.7 727 472.3 698 470.5C669 468.7 640 452.3 611 437C582 421.7 553 407.3 523.8 400.2C494.7 393 465.3 393 436.2 403.8C407 414.7 378 436.3 349 440C320 443.7 291 429.3 262 423C233 416.7 204 418.3 174.8 426.3C145.7 434.3 116.3 448.7 87.2 451.3C58 454 29 445 14.5 440.5L0 436Z" fill="#004cbb"></path></svg>